<svg xmlns="http://www.w3.org/2000/svg" width="55" height="55" viewBox="0 0 55 55"><defs><style>.a{fill:#f27d59;}.b{fill:#fff;}</style></defs><g transform="translate(-978 -714)"><circle class="a" cx="27.5" cy="27.5" r="27.5" transform="translate(978 714)"/><path class="b" d="M16.058,16.921a1.7,1.7,0,0,1,1.969-.559,1.543,1.543,0,0,1,.667.5,1.653,1.653,0,0,1-.5,2.479s-7.549,4.46-7.858,4.067S16.058,16.921,16.058,16.921ZM33,14.351c0,3.78-1.55,4.536-2.325,4.536a1.466,1.466,0,0,1-.961-.393c-.744,5.019-3.658,8.028-8.262,9.056a1.516,1.516,0,0,0,1.472,1.164h.9a.794.794,0,0,1,.744.544,5.02,5.02,0,0,0,1.581,2,.727.727,0,0,1-.046,1.179,5.189,5.189,0,0,1-2.775.8.783.783,0,0,1-.7-.333,2.8,2.8,0,0,1-.48-1.527,5.542,5.542,0,0,1,.139-1.209,3.067,3.067,0,0,1-2.4-2.358,19.991,19.991,0,0,1-2.387.151,18.651,18.651,0,0,1-3.8-.378,1.491,1.491,0,0,0-.077.378,1.536,1.536,0,0,0,1.55,1.512h.9a.794.794,0,0,1,.744.544,5.02,5.02,0,0,0,1.581,2,.727.727,0,0,1-.046,1.179,5.189,5.189,0,0,1-2.774.8.783.783,0,0,1-.7-.333,2.8,2.8,0,0,1-.48-1.527,5.542,5.542,0,0,1,.139-1.209,3.066,3.066,0,0,1-2.465-2.963,2.792,2.792,0,0,1,.124-.8c-3.813-1.3-6.247-4.2-6.913-8.678a1.382,1.382,0,0,1-.961.408C3.55,18.886,2,18.13,2,14.351c0-3.432,2.635-6.8,4.65-6.8.667,0,.759.741.775,1.285a12.441,12.441,0,0,1,8.6-4.974A3.082,3.082,0,0,1,19.05,1.5V3.012a1.967,1.967,0,0,1,3.1,0,1.539,1.539,0,0,0-1.488,1.164,12.445,12.445,0,0,1,6.913,4.656c.015-.544.108-1.285.775-1.285C30.365,7.547,33,10.919,33,14.351ZM6.65,15.863A14.9,14.9,0,0,0,7.038,19.2a10.229,10.229,0,0,1,1.286-2.9A5.582,5.582,0,0,1,7.8,13.973,5.768,5.768,0,0,1,13.625,8.3,5.836,5.836,0,0,1,17.5,9.77,5.836,5.836,0,0,1,21.375,8.3a5.744,5.744,0,0,1,5.813,5.669A5.353,5.353,0,0,1,26.66,16.3a10.259,10.259,0,0,1,1.3,2.933,15.069,15.069,0,0,0,.388-3.371A10.731,10.731,0,0,0,17.5,5.28,10.731,10.731,0,0,0,6.65,15.863Zm20.119,6.486c0-.151.031-.287.031-.438a8.757,8.757,0,0,0-1.085-4.2,5.833,5.833,0,0,1-4.34,1.935,5.424,5.424,0,0,1-1.224-.136,3.007,3.007,0,0,0,.419-1.164c.015-.106.015-.2.031-.287a4.486,4.486,0,0,0,.775.076A4.158,4.158,0,1,0,18.538,10.9l-1.038.907L16.462,10.9a4.257,4.257,0,0,0-7.1,3.069,4.184,4.184,0,0,0,3.456,4.082L11.641,19.31a5.92,5.92,0,0,1-2.372-1.587A8.91,8.91,0,0,0,8.2,21.91c0,.121.016.227.016.363,1.736,2.752,4.851,4.173,9.284,4.173C21.964,26.445,25.064,25.07,26.769,22.348ZM23.7,13.973a2.5,2.5,0,0,1-2.325,2.646,2.5,2.5,0,0,1-2.325-2.646,2.5,2.5,0,0,1,2.325-2.646A2.5,2.5,0,0,1,23.7,13.973Zm-1.163-1.315a.582.582,0,0,0-.589-.575.568.568,0,0,0-.573.575.581.581,0,0,0,1.163,0ZM15.95,13.973a2.5,2.5,0,0,1-2.325,2.646A2.5,2.5,0,0,1,11.3,13.973a2.5,2.5,0,0,1,2.325-2.646A2.5,2.5,0,0,1,15.95,13.973Zm-1.163-1.315a.582.582,0,0,0-.589-.575.568.568,0,0,0-.573.575.581.581,0,0,0,1.162,0Z" transform="translate(988 724)"/></g></svg>