<svg xmlns="http://www.w3.org/2000/svg" width="411" height="416.24" viewBox="0 0 411 416.24"><defs><style>.a{fill:#ff8c6b;}.b{fill:#161111;}.c{fill:#f27d59;}.d{fill:#8271fd;}</style></defs><g transform="translate(-912.457 -90.682)"><circle class="a" cx="69.5" cy="69.5" r="69.5" transform="translate(912.457 113.923)"/><circle class="a" cx="44" cy="44" r="44" transform="translate(1212 107.923)"/><circle class="b" cx="55" cy="55" r="55" transform="translate(1146.102 378.923)"/><ellipse class="c" cx="34.5" cy="34" rx="34.5" ry="34" transform="translate(1108.195 302.923)"/><circle class="d" cx="36.5" cy="36.5" r="36.5" transform="translate(1035.291 358.923)"/><path class="b" d="M0,0C38.66,0,70,31.116,70,69.5S38.66,139,0,139Z" transform="translate(1178.101 206.923)"/><path class="c" d="M0,0C23.748,0,43,18.8,43,42S23.748,84,0,84Z" transform="translate(975.379 347.923)"/><path class="b" d="M0,0C23.782,0,43.06,18.784,43.06,41.956S23.782,83.912,0,83.912Z" transform="translate(1032.26 121.13) rotate(-45)"/><path class="b" d="M0,0C38.66,0,70,31.116,70,69.5S38.66,139,0,139Z" transform="translate(912.457 260.923)"/><path class="d" d="M0,0A54,54,0,0,1,54,54,54,54,0,0,1,0,108Z" transform="translate(1170.196 245.923) rotate(180)"/><path class="d" d="M0,0A54,54,0,0,1,54,54,54,54,0,0,1,0,108Z" transform="translate(1300 383.923) rotate(180)"/><path class="d" d="M0,0,100.474,100.474H0Z" transform="translate(924.227 406.449)"/><path class="c" d="M0,0,100.474,100.474H0Z" transform="translate(1045.483 506.923) rotate(-90)"/><path class="c" d="M0,0,100.474,100.474H0Z" transform="translate(1222.983 506.923) rotate(-90)"/><path class="b" d="M0,0,100.474,100.474H0Z" transform="translate(1007.999 333.656) rotate(-90)"/></g></svg>